<svg width="209" height="186" viewBox="0 0 209 186" fill="none" xmlns="http://www.w3.org/2000/svg">
<path d="M190.668 94.1294C204.545 79.3014 208.946 56.3068 201.524 37.4028C194.102 18.4989 175.232 4.64068 154.973 3.21584C124.265 1.05586 92.3053 30.1676 91.034 60.9269C90.723 68.4493 92.7929 76.9807 99.3326 80.7112C105.419 84.1832 113.728 81.9612 118.294 76.6456C122.86 71.33 124.009 63.6681 122.57 56.8098C121.131 49.9515 117.388 43.7858 113.09 38.2511C98.5816 19.5684 78.4579 1.44036 53.2164 3.21584C32.9579 4.64104 14.0879 18.4989 6.6656 37.4028C-0.756661 56.3068 3.64401 79.3014 17.5213 94.1294" stroke="#FF642F" stroke-width="6.18942" stroke-miterlimit="10" stroke-linecap="round" stroke-linejoin="round"/>
<path d="M132.885 158.874L112.351 178.849C107.833 183.245 100.591 183.081 96.276 178.484C90.4836 172.312 82.692 164.12 77.3004 158.874" stroke="#FF642F" stroke-width="6.18942" stroke-miterlimit="10" stroke-linecap="round" stroke-linejoin="round"/>
<path d="M59.2669 139.727C67.7912 131.786 65.7028 115.689 54.6023 103.774C43.5018 91.8594 27.5928 88.6387 19.0685 96.5805C10.5442 104.522 12.6326 120.619 23.7331 132.534C34.8336 144.449 50.7426 147.669 59.2669 139.727Z" stroke="#FF642F" stroke-width="6.18942" stroke-miterlimit="10" stroke-linecap="round" stroke-linejoin="round"/>
<path d="M186.316 100.13L157.945 133.109" stroke="#FF642F" stroke-width="6.18942" stroke-miterlimit="10" stroke-linecap="round" stroke-linejoin="round"/>
<path d="M146.825 118.212L168.197 95.5754C178.902 85.9983 204.883 105.643 193.239 120.84L172.076 143.255" stroke="#FF642F" stroke-width="6.18942" stroke-miterlimit="10" stroke-linecap="round" stroke-linejoin="round"/>
</svg>
