<svg width="18" height="16" viewBox="0 0 18 16" fill="none" xmlns="http://www.w3.org/2000/svg">
<path d="M0.686996 11.4529H5.48406M12.4487 11.4529H17.2432M14.6163 5.40794H13.8422M2.9202 3.56529V1.93505M17.1172 6.31135L17.0962 6.29344C16.9365 5.69085 16.6501 5.12719 16.2553 4.63819C15.8605 4.14918 15.3658 3.74548 14.8027 3.45268C14.1956 3.15403 13.5531 2.92968 12.8896 2.78472L12.8581 2.57486C12.849 2.32379 12.7985 2.07579 12.7085 1.84036C12.6165 1.61186 12.4752 1.40535 12.2941 1.23489C12.1129 1.06442 11.8963 0.934002 11.6588 0.852492C10.852 0.58938 10.0028 0.47145 9.15272 0.504439H8.80631C7.95621 0.47145 7.10706 0.58938 6.3002 0.852492C6.06252 0.933551 5.84562 1.06381 5.66442 1.23433C5.48323 1.40485 5.34204 1.6116 5.25051 1.84036C5.163 2.06305 5.11335 2.29818 5.10354 2.53648L5.03531 2.7924C4.38307 2.93755 3.7513 3.15926 3.15377 3.45268C2.59099 3.74599 2.09662 4.14984 1.70187 4.63877C1.30711 5.1277 1.02055 5.6911 0.860208 6.29344L0.84182 6.31135C0.586386 7.2115 0.473984 8.14452 0.50854 9.07789C0.462605 10.0612 0.583182 11.0452 0.865429 11.9903C1.50836 14.3115 4.1457 15.1638 6.80928 15.4248H6.88277L7.16617 15.4504L7.384 15.4658H7.51784L7.7645 15.4811H7.84324L8.30248 15.499H9.68282L10.1421 15.4811H10.2181L10.4806 15.4658H10.6144L10.8296 15.4504L11.113 15.4248H11.1865C13.8527 15.1689 16.49 14.3115 17.1303 11.9903C17.4135 11.0454 17.5349 10.0614 17.4899 9.07789C17.5104 8.14261 17.3847 7.20973 17.1172 6.31135ZM8.9664 13.0114C8.9664 13.0114 11.8898 13.2213 12.9027 10.5853C13.3041 9.54516 13.3041 8.3982 12.9027 7.35808C11.8767 4.72206 8.9664 4.93192 8.9664 4.93192C8.9664 4.93192 6.04302 4.72206 5.03008 7.35808C4.62868 8.3982 4.62868 9.54516 5.03008 10.5853C6.04302 13.2213 8.9664 13.0114 8.9664 13.0114ZM8.96642 10.4445C8.96642 10.4445 10.0318 10.5213 10.4071 9.56159C10.5514 9.18179 10.5514 8.76414 10.4071 8.38434C10.0318 7.42206 8.96642 7.49883 8.96642 7.49883C8.96642 7.49883 7.90096 7.42206 7.5257 8.38434C7.3788 8.76368 7.3788 9.18225 7.5257 9.56159C7.90096 10.5213 8.96642 10.4445 8.96642 10.4445Z" stroke="#F8F8F8" stroke-width="0.997761" stroke-linecap="round" stroke-linejoin="round"/>
</svg>
