<svg width="18" height="21" viewBox="0 0 18 21" fill="none" xmlns="http://www.w3.org/2000/svg">
<path d="M5.33241 8.35439V4.04809C5.33514 3.13221 5.70518 2.2545 6.36183 1.60655C7.01848 0.958599 7.90849 0.592947 8.83759 0.589355C9.76728 0.59205 10.6581 0.957338 11.3154 1.60538C11.9728 2.25343 12.3434 3.13162 12.3461 4.04809V8.35439M17.0702 15.9866L16.0136 8.27272C15.9135 7.63667 15.583 7.05792 15.0833 6.64358C14.5836 6.22925 13.9486 6.00737 13.2958 6.01909H4.38272C3.72989 6.00737 3.09486 6.22925 2.59519 6.64358C2.09551 7.05792 1.76508 7.63667 1.665 8.27272L0.608259 15.9866C0.558778 16.4293 0.606091 16.8773 0.746949 17.3005C0.887806 17.7236 1.11896 18.1121 1.42488 18.4398C1.73081 18.7675 2.10439 19.0268 2.52049 19.2002C2.93658 19.3737 3.38554 19.4573 3.83715 19.4454H13.8518C14.3025 19.4558 14.7503 19.3712 15.1652 19.197C15.58 19.0229 15.9523 18.7634 16.2571 18.4358C16.5618 18.1083 16.792 17.7204 16.9323 17.298C17.0726 16.8756 17.1196 16.4284 17.0702 15.9866Z" stroke="#F8F8F8" stroke-width="1.17857" stroke-linecap="round" stroke-linejoin="round"/>
</svg>
