<svg width="19" height="38" viewBox="0 0 19 38" fill="none" xmlns="http://www.w3.org/2000/svg">
<path d="M4.40278 25.1019C3.59333 27.1432 2.97589 29.2631 2.55937 31.4314C2.2675 33.0502 2.03708 35.7215 3.37354 36.8871C3.64138 37.1579 3.97286 37.3486 4.33387 37.4396C4.69488 37.5306 5.07238 37.5186 5.42753 37.4048C5.78268 37.2911 6.10265 37.0796 6.35453 36.7922C6.60641 36.5049 6.78113 36.1523 6.86064 35.7702C7.06034 34.378 6.67627 28.1776 6.63018 26.5749C6.63018 25.5227 6.63018 24.4542 6.63018 23.3372C6.63018 17.3475 6.43051 7.37582 6.41515 1.38613C6.40263 1.20469 6.34123 1.0305 6.23813 0.884594C6.13502 0.73869 5.9945 0.627106 5.83313 0.562487C5.67177 0.497867 5.49624 0.482876 5.32721 0.519802C5.15817 0.556729 5.00268 0.643875 4.87899 0.770769C0.884978 5.8701 -0.820166 12.5075 1.65305 18.7886C2.07073 19.9266 2.7496 20.9376 3.62889 21.7314C4.50818 22.5253 5.56046 23.0769 6.69164 23.3372M13.1589 16.2793C12.9746 19.776 12.2679 23.2078 11.8071 26.6721C11.3926 28.8899 11.1918 31.146 11.208 33.4063C11.3309 35.1385 11.93 37.4696 13.9577 37.4858C14.5134 37.5035 15.0573 37.3146 15.4939 36.9519C15.9827 36.4318 16.3187 35.7739 16.4616 35.0575C16.7058 33.9988 16.7938 32.9068 16.7228 31.8199C16.7228 30.0877 16.3387 28.4043 16.1083 26.7045C15.6475 23.2402 14.9408 19.8084 14.7565 16.3117M12.5751 1.12682V9.221M15.4017 9.17239V1.07821M10.0712 1.12682V12.216C10.0753 13.3009 10.486 14.3403 11.214 15.1075C11.942 15.8746 12.9282 16.3074 13.9577 16.3117C14.9872 16.3074 15.9734 15.8746 16.7014 15.1075C17.4294 14.3403 17.8401 13.3009 17.8442 12.216V1.12682" stroke="#E95322" stroke-linecap="round" stroke-linejoin="round"/>
</svg>
