<svg width="43" height="31" viewBox="0 0 43 31" fill="none" xmlns="http://www.w3.org/2000/svg">
<path d="M1.4447 22.0284V22.6929C1.44623 24.318 2.09284 25.8761 3.2425 27.0247C4.39215 28.1732 5.95085 28.8184 7.57594 28.8184H35.3136C36.9387 28.8184 38.4973 28.1732 39.6469 27.0247C40.7966 25.8761 41.4432 24.318 41.4447 22.6929V7.57594C41.4447 6.77078 41.2861 5.97349 40.978 5.22962C40.6699 4.48576 40.2182 3.80986 39.6489 3.24052C39.0795 2.67119 38.4036 2.21952 37.6598 1.9114C36.9159 1.60328 36.1188 1.4447 35.3136 1.4447H7.57594C6.77078 1.4447 5.97349 1.60328 5.22962 1.9114C4.48576 2.21952 3.80986 2.67119 3.24052 3.24052C2.67119 3.80986 2.21952 4.48576 1.9114 5.22962C1.60328 5.97349 1.4447 6.77078 1.4447 7.57594V21.9532M1.45626 8.04977H41.4274M7.06736 15.4638H10.3843M7.06736 21.202H15.0882M25.536 21.202H28.8241M32.9501 21.202H36.2381" stroke="#E95322" stroke-width="2.88934" stroke-linecap="round" stroke-linejoin="round"/>
</svg>
