<svg width="43" height="41" viewBox="0 0 43 41" fill="none" xmlns="http://www.w3.org/2000/svg">
<path d="M34.7761 32.0781C35.5386 31.9815 36.3118 32.1351 36.9794 32.5159C37.647 32.8966 38.1729 33.4839 38.478 34.1893C38.8513 35.0513 38.8669 36.0262 38.5214 36.8996C38.1758 37.773 37.4975 38.4734 36.6356 38.8468C36.2085 39.0325 35.749 39.1321 35.2833 39.14C34.8177 39.1479 34.3551 39.0639 33.9219 38.8928C33.4888 38.7216 33.0937 38.4668 32.7591 38.1427C32.4246 37.8187 32.1573 37.4319 31.9725 37.0044C31.7659 36.5324 31.6654 36.0207 31.6783 35.5056C31.6912 34.9905 31.817 34.4845 32.0469 34.0234M16.7129 34.0349H32.0697M20.0314 29.4747C19.5245 28.8119 18.874 28.2725 18.1288 27.8969C17.3837 27.5214 16.5631 27.3194 15.7287 27.3062C12.496 27.3062 9.86978 30.3158 9.86978 34.0291V34.3953H13.3028M41.3846 34.7558C41.3831 33.1225 40.7331 31.5566 39.5777 30.4022C38.4222 29.2478 36.8557 28.5993 35.2224 28.5993M20.0886 34.3953C20.2012 34.7526 20.2591 35.125 20.2603 35.4996C20.2603 36.4394 19.8873 37.3409 19.2233 38.006C18.5593 38.6711 17.6584 39.0455 16.7186 39.047C15.7778 39.047 14.8754 38.6733 14.2102 38.008C13.5449 37.3427 13.1712 36.4404 13.1712 35.4996C13.1714 35.1244 13.2313 34.7517 13.3485 34.3953M37.4767 29.0265L34.4099 17.6023C34.4099 17.6023 37.2249 17.5394 36.4353 13.6601M11.0198 30.0812V23.9819C11.0153 23.7305 11.0604 23.4806 11.1526 23.2467C11.2449 23.0127 11.3823 22.7992 11.5572 22.6185C11.7321 22.4378 11.9409 22.2933 12.1717 22.1935C12.4025 22.0936 12.6508 22.0403 12.9022 22.0366H17.5139C17.8829 22.0321 18.2482 22.1104 18.583 22.2659C18.9177 22.4214 19.2132 22.65 19.4478 22.9349C20.0886 23.7302 24.0652 29.612 24.0652 29.612H29.6724C29.9627 29.6073 30.2491 29.5435 30.5139 29.4243C30.7787 29.3051 31.0164 29.1331 31.2125 28.9188C31.4085 28.7046 31.5588 28.4526 31.654 28.1782C31.7493 27.9039 31.7876 27.613 31.7665 27.3234L30.3532 15.8801C30.3331 15.7034 30.3505 15.5244 30.4043 15.3549C30.458 15.1854 30.5469 15.0291 30.6652 14.8963C30.7834 14.7634 30.9284 14.657 31.0905 14.584C31.2527 14.511 31.4284 14.473 31.6063 14.4726H32.7506M29.9928 11.9379H28.4308M25.6443 29.612V24.0678C25.6443 22.6262 25.0717 21.2436 24.0523 20.2243C23.033 19.2049 21.6504 18.6322 20.2088 18.6322H14.9735M8.9486 39.1443H16.7129M24.8662 39.1443H34.7875M6.65423 30.8536H10.2474M1.14429 25.3952H6.31665M25.3754 7.02873C24.9394 7.43521 24.405 7.72114 23.8248 7.85837C22.9468 8.05657 22.026 7.90197 21.2609 7.42788C20.4957 6.95379 19.9473 6.19814 19.7339 5.32368C19.5355 4.44642 19.6893 3.52634 20.1622 2.76131C20.6351 1.99628 21.3894 1.4474 22.2629 1.23271C22.7099 1.12924 23.1731 1.11643 23.6252 1.19505C24.0772 1.27367 24.5089 1.44212 24.8948 1.69044C25.3352 1.96084 25.6994 2.3389 25.9533 2.78899C26.1764 3.21812 26.268 3.75023 26.6628 4.06492C27.2979 4.57414 28.2419 4.2709 28.8885 3.95049M24.1338 14.9933L22.2571 19.0384M29.5637 11.915H28.2305C27.8516 11.9157 27.482 11.7973 27.174 11.5766C26.866 11.3558 26.6352 11.0439 26.514 10.6849C26.2622 10.1081 25.8875 9.5932 25.4161 9.17617C24.9447 8.75914 24.388 8.45 23.7848 8.27033C22.1905 7.63589 20.4182 7.61144 18.807 8.20166C17.4946 8.72384 16.4017 9.68139 15.7116 10.9137C15.2089 11.8186 14.945 12.8367 14.9449 13.8718V18.6151H20.0314M22.589 11.915C22.589 11.915 23.4186 17.917 30.3418 16.0231M26.5598 3.9791C26.5598 3.9791 22.978 5.05476 19.9799 3.06935M8.69685 12.2183H13.6861C14.0276 12.2183 14.355 12.3539 14.5964 12.5953C14.8379 12.8367 14.9735 13.1642 14.9735 13.5056V20.7492C14.9735 21.0906 14.8379 21.4181 14.5964 21.6595C14.355 21.901 14.0276 22.0366 13.6861 22.0366H5.01784C4.67641 22.0366 4.34896 21.901 4.10753 21.6595C3.8661 21.4181 3.73047 21.0906 3.73047 20.7492V17.1675C3.73501 15.8533 4.26026 14.5945 5.19114 13.6668C6.12203 12.7391 7.38265 12.2182 8.69685 12.2183Z" stroke="#E95322" stroke-width="2.28866" stroke-linecap="round" stroke-linejoin="round"/>
</svg>
