<svg width="34" height="40" viewBox="0 0 34 40" fill="none" xmlns="http://www.w3.org/2000/svg">
<path d="M26.3579 15.2689V6.63862C26.3579 5.204 25.7879 3.82806 24.7735 2.81363C23.7591 1.7992 22.3832 1.22937 20.9486 1.22937H10.4792C9.74678 1.22886 9.04229 1.51059 8.51224 2.0161L2.05064 8.37944C1.8171 8.61155 1.62868 8.88496 1.49496 9.18585C1.31855 9.55593 1.22777 9.96096 1.22939 10.3709V32.6275C1.22939 34.0622 1.79934 35.4381 2.81377 36.4525C3.8282 37.467 5.20402 38.0368 6.63864 38.0368H20.9633C22.1085 38.035 23.2236 37.6698 24.148 36.9937C25.0724 36.3177 25.7583 35.3657 26.1071 34.2749M15.3377 8.95966H21.7157M5.56663 15.2688H21.7157M22.2861 22.6549H32.2293M28.8461 19.4044L31.6884 21.5632C31.8565 21.6907 31.9928 21.8554 32.0867 22.0443C32.1805 22.2333 32.2294 22.4414 32.2294 22.6524C32.2294 22.8634 32.1805 23.0715 32.0867 23.2605C31.9928 23.4495 31.8565 23.6142 31.6884 23.7417L28.8461 25.9004M27.6315 30.1688H17.7129M21.0715 33.4144L18.2685 31.2851C18.0954 31.1544 17.9549 30.9854 17.8582 30.7913C17.7615 30.5971 17.7112 30.3833 17.7112 30.1664C17.7112 29.9495 17.7615 29.7356 17.8582 29.5415C17.9549 29.3474 18.0954 29.1783 18.2685 29.0477L21.0715 26.9184M9.32362 1.49986V5.58129C9.32426 6.05699 9.23112 6.52826 9.04953 6.96793C8.86793 7.40761 8.60141 7.80716 8.26526 8.14376C7.92912 8.48037 7.52994 8.74734 7.09051 8.92953C6.65108 9.11173 6.18005 9.20554 5.70434 9.20554H1.5097C1.64342 8.90465 1.83184 8.63124 2.06538 8.39912L8.52698 2.03579C8.75928 1.81208 9.02888 1.63076 9.32362 1.49986Z" stroke="#E95322" stroke-width="2.45875" stroke-linecap="round" stroke-linejoin="round"/>
</svg>
