<svg width="18" height="16" viewBox="0 0 18 16" fill="none" xmlns="http://www.w3.org/2000/svg">
<path d="M5.13802 12.8781C4.00926 12.2608 3.05806 11.3639 2.37566 10.2733C0.853604 7.84514 2.80385 5.65183 4.88667 4.47231C5.96743 3.88822 7.1599 3.54038 8.3852 3.4518C9.6105 3.36322 10.8407 3.53591 11.9942 3.95848M13.8947 4.99161C14.569 5.50197 15.1329 6.14383 15.5521 6.87832L15.5742 6.9198C17.2841 9.97496 14.0162 12.4445 11.4307 13.3699C9.95504 13.8962 8.35477 13.9646 6.83962 13.566M15.3919 3.01379C15.3919 3.01379 16.6453 3.93634 17.1847 4.49721M0.690613 4.49721C0.690613 4.49721 4.38391 0.690674 8.93903 0.690674C10.6246 0.730195 12.2753 1.17959 13.7483 2.00003M6.98881 10.3396C6.64878 9.96049 6.42588 9.49102 6.34704 8.98793C6.26821 8.48484 6.33681 7.96963 6.54458 7.50471C6.75234 7.0398 7.09042 6.64508 7.51781 6.36821C7.9452 6.09134 8.44364 5.94424 8.95287 5.94469C9.3712 5.94364 9.7835 6.04407 10.1545 6.23744M11.5882 8.57168C11.5874 9.27038 11.3095 9.94019 10.8155 10.4342C10.3214 10.9283 9.65156 11.2062 8.95286 11.2069M14.5632 1.20169L4.08281 14.4306" stroke="#E95322" stroke-width="1.38118" stroke-linecap="round" stroke-linejoin="round"/>
</svg>
