<svg width="9" height="13" viewBox="0 0 9 13" fill="none" xmlns="http://www.w3.org/2000/svg">
<path d="M1.5455 3.71568C0.398318 6.02119 -0.291568 10.0363 2.55886 11.2409C3.16461 11.4936 3.81446 11.6238 4.47083 11.6238C5.1272 11.6238 5.77706 11.4936 6.3828 11.2409C8.86836 10.2068 8.86838 6.43704 7.0775 3.75232M3.20094 5.24526V9.56154M5.59569 5.24526V9.56154M2.64489 1.49621C2.64489 0.892346 3.38735 0.398438 4.29713 0.398438H4.50107C5.41085 0.398438 6.15335 0.892346 6.15335 1.49621M1.05794 1.61411H7.73869C8.10299 1.61411 8.39832 1.90944 8.39832 2.27374V3.05606C8.39832 3.42036 8.10299 3.71569 7.73869 3.71569H1.05794C0.693642 3.71569 0.398315 3.42036 0.398315 3.05606V2.27374C0.398315 1.90944 0.693642 1.61411 1.05794 1.61411Z" stroke="#E95322" stroke-width="0.796654" stroke-linecap="round" stroke-linejoin="round"/>
</svg>
