<svg width="16" height="23" viewBox="0 0 16 23" fill="none" xmlns="http://www.w3.org/2000/svg">
<path d="M8.02348 7.94248C10.1073 7.94248 11.7966 6.27642 11.7966 4.22124C11.7966 2.16606 10.1073 0.5 8.02348 0.5C5.93967 0.5 4.25041 2.16606 4.25041 4.22124C4.25041 6.27642 5.93967 7.94248 8.02348 7.94248Z" stroke="#F8F8F8" stroke-linecap="round" stroke-linejoin="round"/>
<path d="M14.9692 18.8118C13.1582 22.8241 8.00004 22.4934 8.00004 22.4934C8.00004 22.4934 2.83847 22.8109 1.03075 18.8118C0.68089 18.0425 0.5 17.2088 0.5 16.3657C0.5 15.5225 0.68089 14.689 1.03075 13.9197C2.83847 9.90734 8.00004 10.2381 8.00004 10.2381C8.00004 10.2381 13.1582 9.92057 14.9692 13.9197C15.3191 14.689 15.5 15.5225 15.5 16.3657C15.5 17.2088 15.3191 18.0425 14.9692 18.8118Z" stroke="#F8F8F8" stroke-linecap="round" stroke-linejoin="round"/>
</svg>
